<?xml version="1.0" standalone="no"?>
<!DOCTYPE svg PUBLIC "-//W3C//DTD SVG 20010904//EN"
 "http://www.w3.org/TR/2001/REC-SVG-20010904/DTD/svg10.dtd">
<svg version="1.0" xmlns="http://www.w3.org/2000/svg"
 width="108.000000pt" height="171.000000pt" viewBox="0 0 108.000000 171.000000"
 preserveAspectRatio="xMidYMid meet">
<metadata>
Created by potrace 1.10, written by Peter Selinger 2001-2011
</metadata>
<g transform="translate(0.000000,171.000000) scale(0.100000,-0.100000)"
fill="#000000" stroke="none">
<path d="M500 1643 c0 -5 11 -60 25 -123 14 -68 24 -101 25 -80 0 33 22 150
35 191 6 17 1 19 -39 19 -25 0 -46 -3 -46 -7z"/>
<path d="M290 1586 c-25 -18 -54 -43 -65 -56 l-20 -22 25 -17 c48 -31 123
-106 166 -167 67 -94 103 -179 117 -280 14 -93 20 -98 32 -24 13 84 35 146 80
222 52 89 141 190 204 229 l43 28 -38 37 c-22 20 -49 43 -62 52 -21 14 -25 13
-53 -14 -53 -50 -127 -222 -164 -378 -7 -32 -16 -60 -18 -62 -2 -3 -7 15 -11
38 -10 64 -62 199 -123 323 -30 61 -58 113 -61 117 -4 4 -27 -8 -52 -26z m79
-109 c18 -37 32 -70 29 -72 -6 -6 -118 101 -118 112 0 15 24 34 40 31 8 -2 30
-34 49 -71z m425 37 c2 -6 -27 -42 -65 -79 -51 -50 -69 -63 -69 -49 1 28 33
94 64 131 24 28 30 31 46 20 11 -6 22 -17 24 -23z"/>
<path d="M113 1343 c-17 -43 -34 -88 -38 -101 -7 -23 -7 -23 25 -7 74 38 203
27 283 -25 44 -30 69 -72 82 -137 11 -55 29 -53 22 2 -10 69 -52 138 -127 208
-62 58 -181 137 -206 137 -6 0 -25 -35 -41 -77z m120 -10 l42 -28 -64 -3 c-35
-2 -65 -1 -68 1 -8 9 21 57 34 57 7 0 32 -12 56 -27z"/>
<path d="M875 1392 c-126 -69 -222 -155 -267 -238 -29 -55 -48 -132 -29 -120
6 4 11 12 11 18 0 20 52 113 78 141 36 38 65 52 139 66 67 13 124 4 170 -26
12 -8 23 -11 23 -5 0 12 -47 137 -63 168 l-12 23 -50 -27z m48 -85 c-6 -10
-93 -5 -93 5 0 4 17 16 38 27 l37 19 12 -21 c6 -12 9 -25 6 -30z"/>
<path d="M135 1226 c-5 -2 -22 -7 -36 -10 -35 -8 -48 -58 -55 -224 l-6 -127
25 50 c28 59 80 108 133 125 22 8 64 11 106 8 75 -6 79 5 14 36 -62 29 -150
14 -203 -36 -36 -33 -36 -17 0 42 43 72 91 98 150 80 23 -6 63 -27 90 -46 26
-19 47 -30 47 -24 0 17 -66 75 -112 98 -43 21 -130 37 -153 28z"/>
<path d="M840 1219 c-44 -13 -75 -39 -37 -32 51 10 142 -58 171 -129 23 -54
20 -66 -7 -27 -28 42 -92 68 -170 68 -52 1 -62 -2 -89 -29 -17 -17 -28 -33
-25 -36 3 -3 27 2 54 11 117 40 203 -21 268 -190 5 -13 9 -15 12 -7 3 6 8 10
11 8 8 -5 -2 229 -13 296 -6 41 -11 48 -39 57 -53 17 -100 20 -136 10z"/>
<path d="M173 971 c-55 -40 -80 -75 -98 -134 -16 -54 -20 -153 -8 -208 7 -33
8 -32 15 21 18 151 28 180 42 128 9 -36 7 -58 -5 -55 -18 3 -30 -53 -23 -103
7 -51 16 -71 55 -120 36 -44 59 -109 60 -169 l1 -46 13 40 c22 67 18 120 -17
198 -26 61 -31 85 -32 154 -1 46 -4 83 -8 83 -5 0 -8 29 -8 65 0 65 14 109 48
148 26 29 7 29 -35 -2z"/>
<path d="M310 988 c-38 -14 -63 -40 -48 -49 9 -6 6 -15 -14 -36 -14 -15 -29
-39 -33 -53 -7 -23 -7 -24 16 -9 17 11 34 13 59 7 19 -4 46 -5 60 -2 23 5 23
4 9 -13 -38 -43 -27 -42 40 7 63 46 71 55 71 84 0 35 -21 60 -57 69 -18 4 -23
1 -23 -13 0 -36 -46 -36 -52 0 -2 14 -8 16 -28 8z m55 -61 c11 0 30 4 43 8 29
10 30 -15 2 -40 -15 -13 -33 -18 -63 -16 -51 3 -58 9 -46 40 7 17 14 21 27 15
9 -4 26 -7 37 -7z"/>
<path d="M607 972 c-10 -10 -17 -32 -17 -49 0 -26 10 -39 65 -82 62 -49 83
-58 50 -20 -15 15 -12 17 41 24 36 4 60 3 67 -4 39 -39 28 20 -11 62 -22 23
-24 29 -12 37 8 5 12 11 10 13 -50 40 -85 47 -93 17 -3 -11 -13 -20 -22 -20
-9 0 -19 9 -22 20 -7 25 -35 26 -56 2z m153 -73 c0 -26 -83 -29 -110 -4 -29
26 -25 38 13 32 17 -3 41 -2 52 3 19 8 45 -10 45 -31z"/>
<path d="M867 948 c23 -33 28 -55 31 -115 3 -49 1 -73 -7 -73 -7 0 -11 -29
-11 -84 0 -73 -4 -92 -32 -152 -36 -77 -42 -151 -16 -214 l15 -35 0 62 c1 68
23 123 73 180 40 45 53 94 45 161 -9 73 2 63 20 -19 l13 -64 1 105 c0 115 -11
159 -54 216 -25 33 -79 74 -98 74 -4 0 5 -19 20 -42z m93 -174 c0 -12 -6 -36
-14 -54 -19 -46 -28 -14 -13 49 11 48 27 51 27 5z"/>
<path d="M477 842 c-36 -36 -44 -62 -31 -96 3 -9 10 -13 15 -10 5 3 7 10 4 15
-9 14 17 10 38 -5 12 -10 17 -28 17 -69 l0 -56 -52 6 c-36 3 -59 0 -71 -9 -16
-12 -14 -13 20 -10 21 2 49 -1 62 -5 23 -9 160 6 212 22 22 7 22 8 4 21 -10 8
-28 14 -39 14 -17 0 -18 -2 -6 -10 21 -13 12 -17 -57 -22 l-63 -4 0 56 c0 52
2 58 26 69 18 8 30 8 39 1 15 -12 25 -3 25 25 0 27 -66 105 -89 105 -9 0 -34
-17 -54 -38z m73 -27 c15 -18 5 -35 -20 -35 -22 0 -34 15 -26 35 7 19 30 19
46 0z"/>
<path d="M301 699 c-30 -40 -51 -113 -51 -173 0 -49 19 -97 55 -137 42 -47 59
-99 59 -179 l0 -65 14 35 c20 50 12 164 -16 210 -16 25 -22 51 -22 92 0 34 -7
68 -17 86 -34 59 22 122 108 122 40 0 32 9 -29 32 -64 24 -68 24 -101 -23z"/>
<path d="M675 729 c-11 -5 -33 -14 -50 -20 l-30 -12 49 -8 c63 -10 96 -40 96
-90 0 -20 -7 -42 -15 -49 -10 -8 -15 -31 -15 -68 0 -37 -7 -71 -22 -101 -28
-58 -34 -143 -14 -196 l15 -40 1 70 c0 74 20 132 58 171 37 39 52 81 52 148 0
74 -21 138 -58 179 -27 29 -36 31 -67 16z"/>
<path d="M440 562 c0 -2 16 -10 35 -18 46 -19 98 -18 124 4 21 16 19 17 -69
17 -49 0 -90 -1 -90 -3z"/>
<path d="M460 495 c0 0 7 -32 15 -71 13 -64 13 -76 0 -108 -19 -45 -19 -117 0
-162 15 -37 75 -118 81 -111 2 2 -3 21 -12 43 -18 40 -26 225 -12 240 4 4 15
1 24 -6 12 -11 15 -28 12 -72 -3 -63 0 -69 20 -38 23 37 27 107 7 136 -13 20
-16 42 -13 88 l4 61 -63 0 c-35 1 -63 1 -63 0z m80 -91 c0 -19 -4 -34 -9 -34
-10 0 -21 60 -14 73 10 16 23 -6 23 -39z"/>
</g>
</svg>
