<?xml version="1.0" standalone="no"?>
<!DOCTYPE svg PUBLIC "-//W3C//DTD SVG 20010904//EN"
 "http://www.w3.org/TR/2001/REC-SVG-20010904/DTD/svg10.dtd">
<svg version="1.0" xmlns="http://www.w3.org/2000/svg"
 width="214.000000pt" height="292.000000pt" viewBox="0 0 214.000000 292.000000"
 preserveAspectRatio="xMidYMid meet">
<metadata>
Created by potrace 1.10, written by Peter Selinger 2001-2011
</metadata>
<g transform="translate(0.000000,292.000000) scale(0.100000,-0.100000)"
fill="#000000" stroke="none">
<path d="M712 2715 c-58 -49 -81 -157 -62 -294 14 -103 52 -226 92 -303 35
-67 33 -97 -14 -155 -43 -54 -58 -94 -58 -158 0 -57 19 -116 47 -147 14 -16
12 -21 -33 -65 -56 -57 -126 -161 -152 -229 -18 -46 -25 -52 -124 -109 -57
-33 -117 -68 -133 -79 l-28 -18 6 -97 c27 -411 295 -762 657 -858 89 -24 291
-24 380 0 362 96 630 447 657 858 l6 97 -28 18 c-16 11 -76 46 -133 79 -99 57
-106 63 -124 109 -26 67 -95 172 -150 226 l-45 46 23 34 c57 82 53 202 -9 277
-18 21 -38 55 -46 76 -12 36 -11 42 17 95 44 83 81 211 94 322 15 130 -4 218
-57 268 -78 72 -177 16 -260 -147 -36 -73 -85 -225 -85 -267 0 -22 -4 -24 -50
-24 -46 0 -50 2 -50 24 0 42 -49 194 -85 267 -79 156 -179 217 -253 154z m138
-61 c52 -47 113 -171 144 -292 28 -112 44 -132 101 -132 64 0 82 20 110 130
33 125 93 247 145 294 52 47 101 48 134 3 19 -26 21 -42 21 -155 -1 -144 -19
-226 -81 -362 -32 -69 -35 -81 -25 -115 5 -20 27 -61 47 -91 52 -75 57 -143
20 -232 -31 -73 -32 -71 54 -176 32 -39 76 -107 98 -151 48 -95 61 -108 173
-169 125 -67 125 -67 111 -179 -17 -137 -38 -211 -92 -322 -56 -116 -125 -211
-207 -284 -116 -105 -275 -178 -403 -186 -36 -2 -54 -2 -40 1 14 2 52 9 85 15
298 54 553 333 626 684 25 121 24 163 -4 197 -28 35 -199 128 -234 128 -14 0
-74 -26 -132 -58 -130 -72 -133 -73 -162 -58 -33 17 -116 63 -167 94 -24 14
-56 25 -72 24 -15 0 -77 -28 -136 -62 -60 -34 -118 -62 -129 -62 -11 0 -69 27
-130 61 -62 34 -122 61 -139 61 -16 0 -71 -24 -127 -56 -138 -77 -146 -96
-110 -269 40 -195 127 -356 259 -483 121 -117 258 -187 412 -211 l65 -10 -65
4 c-36 2 -99 16 -140 30 -286 98 -496 366 -555 709 -19 111 -19 151 0 169 8 8
56 37 107 65 109 59 124 73 172 171 38 77 71 124 138 198 21 24 38 48 38 55 0
7 -11 40 -25 73 -40 96 -32 155 33 244 48 66 49 102 7 195 -54 115 -85 249
-85 362 0 133 24 184 87 184 24 0 44 -10 73 -36z m-160 -1494 c67 -38 131 -70
143 -70 12 0 77 31 144 70 l123 70 124 -70 c68 -39 133 -70 144 -70 11 0 75
31 142 70 l122 69 109 -60 c125 -69 119 -58 94 -202 -34 -194 -112 -346 -245
-478 -71 -71 -103 -94 -181 -133 -107 -53 -200 -76 -309 -76 -109 0 -202 23
-309 76 -78 39 -110 62 -181 133 -133 132 -211 284 -245 478 -25 143 -30 132
93 201 59 34 108 61 109 62 0 0 56 -31 123 -70z"/>
<path d="M740 2649 c-71 -71 -45 -303 55 -501 l44 -87 -25 -62 c-13 -35 -33
-72 -43 -83 -23 -24 -51 -87 -51 -113 0 -35 49 -123 93 -167 45 -45 102 -80
167 -104 l35 -12 -35 5 c-19 3 -67 21 -106 41 -69 35 -72 35 -102 20 -64 -33
-182 -200 -182 -257 1 -37 28 -63 128 -119 114 -65 122 -64 267 19 58 34 110
61 116 61 5 0 57 -27 115 -61 141 -81 151 -82 254 -26 99 53 140 90 140 124 0
58 -117 225 -180 258 -27 14 -33 13 -111 -25 -46 -22 -92 -40 -103 -39 -14 0
-7 6 19 17 106 44 183 110 225 191 33 66 25 121 -28 190 -31 40 -62 114 -62
149 0 12 11 39 25 60 79 121 130 400 89 488 -44 93 -120 64 -192 -73 -44 -86
-68 -160 -87 -267 -11 -66 -13 -71 -36 -68 -29 3 -93 3 -134 -1 -30 -2 -30 -1
-41 68 -22 146 -83 294 -148 358 -48 48 -70 51 -106 16z m79 -44 c17 -20 45
-63 62 -97 35 -69 79 -231 79 -289 0 -48 23 -73 59 -64 59 15 106 17 142 5 35
-12 41 -11 59 5 13 12 20 31 20 55 0 110 86 333 151 396 29 28 31 28 44 10 53
-71 8 -343 -80 -488 -34 -55 -44 -92 -26 -102 4 -3 14 -27 21 -53 7 -27 25
-61 40 -78 15 -16 33 -40 39 -52 40 -78 -36 -194 -169 -257 -59 -28 -74 -31
-160 -31 -88 0 -101 3 -162 33 -112 55 -186 158 -170 237 2 15 20 42 39 61 31
31 46 65 70 161 3 15 -5 39 -25 71 -88 136 -138 405 -93 491 16 29 24 27 60
-14z m26 -1070 c76 -51 142 -69 255 -69 115 0 186 19 264 70 l40 27 58 -62
c53 -57 126 -176 114 -188 -2 -3 -51 -31 -108 -63 -91 -52 -105 -57 -123 -46
-11 7 -71 41 -132 76 l-113 62 -112 -62 c-62 -35 -122 -69 -133 -76 -18 -11
-32 -6 -123 46 -57 32 -106 60 -108 63 -3 3 8 32 25 65 29 57 133 182 152 182
4 0 24 -11 44 -25z"/>
<path d="M963 1950 c-26 -11 -38 -43 -24 -68 14 -26 45 -33 71 -15 43 30 3
102 -47 83z"/>
<path d="M1191 1943 c-42 -29 -9 -99 40 -86 28 8 44 45 30 70 -14 27 -45 34
-70 16z"/>
<path d="M1072 1854 c-41 -29 -23 -84 28 -84 32 0 50 17 50 46 0 20 -32 54
-50 54 -3 0 -16 -7 -28 -16z"/>
</g>
</svg>
