<?xml version="1.0" standalone="no"?>
<!DOCTYPE svg PUBLIC "-//W3C//DTD SVG 20010904//EN"
 "http://www.w3.org/TR/2001/REC-SVG-20010904/DTD/svg10.dtd">
<svg version="1.0" xmlns="http://www.w3.org/2000/svg"
 width="130.000000pt" height="86.000000pt" viewBox="0 0 130.000000 86.000000"
 preserveAspectRatio="xMidYMid meet">
<metadata>
Created by potrace 1.10, written by Peter Selinger 2001-2011
</metadata>
<g transform="translate(0.000000,86.000000) scale(0.100000,-0.100000)"
fill="#000000" stroke="none">
<path d="M417 706 c-135 -8 -190 -15 -196 -24 -4 -7 -2 -50 6 -95 8 -45 17
-135 21 -199 4 -64 9 -118 12 -121 3 -2 57 -34 120 -71 l115 -66 64 11 c63 10
65 10 86 -17 20 -26 24 -26 86 -19 80 9 141 9 249 0 79 -6 87 -5 120 17 91 62
96 169 9 214 -16 8 -37 14 -48 14 -11 0 -22 8 -25 18 -3 9 -19 25 -36 34 -21
12 -30 25 -30 42 0 25 -23 56 -41 56 -5 0 -22 -8 -36 -17 -16 -11 -24 -13 -19
-5 4 7 1 24 -9 38 -13 21 -23 25 -46 22 -16 -3 -29 -4 -30 -4 0 1 -6 42 -12
91 l-12 90 -80 1 c-44 1 -165 -4 -268 -10z m338 -53 c3 -27 8 -64 10 -84 4
-33 2 -36 -30 -48 -31 -11 -38 -10 -61 8 -29 23 -54 16 -76 -18 -11 -18 -13
-17 -27 13 -21 42 -51 44 -93 8 -30 -27 -35 -29 -53 -16 -47 35 -125 3 -125
-51 0 -18 -5 -25 -20 -25 -16 0 -20 7 -21 38 0 20 -6 71 -14 112 -7 41 -11 77
-8 80 5 6 312 26 430 28 l82 2 6 -47z m-201 -130 c6 -21 26 -150 26 -174 0
-21 -73 -32 -108 -16 -24 11 -24 14 -19 87 5 67 9 77 34 97 34 27 60 29 67 6z
m117 -12 c18 -14 27 -36 35 -88 7 -37 11 -69 10 -70 -1 -1 -27 -6 -58 -11
l-56 -9 -10 66 c-9 63 -8 67 17 98 30 39 32 39 62 14z m178 -5 c10 -11 8 -28
-7 -78 -19 -62 -20 -63 -61 -69 -23 -3 -44 -3 -45 0 -2 3 -7 36 -11 73 l-7 67
28 6 c16 4 34 8 39 10 24 8 53 4 64 -9z m-424 -19 c10 -17 13 -37 8 -75 -3
-29 -9 -52 -12 -52 -19 1 -85 49 -99 72 -14 24 -14 28 1 52 23 35 80 37 102 3z
m527 -51 c5 -22 5 -43 1 -47 -5 -4 -32 -11 -60 -15 l-53 -7 11 34 c13 38 56
81 79 77 8 -2 18 -21 22 -42z m-481 -192 c-1 -38 -4 -70 -5 -72 -2 -1 -46 23
-99 54 l-97 56 0 67 0 68 102 -52 101 -53 -2 -68z m549 119 c-1 -5 -47 -34
-104 -65 -98 -55 -107 -58 -172 -58 -75 0 -114 -17 -114 -50 0 -14 -12 -20
-63 -29 -35 -6 -67 -11 -70 -11 -4 0 -7 34 -7 75 0 87 -17 77 170 100 69 9
166 22 215 29 109 16 145 18 145 9z m87 -49 c35 -22 56 -60 49 -89 -10 -41
-67 -95 -107 -104 -21 -5 -61 -4 -95 2 -74 14 -145 14 -205 1 -25 -6 -55 -7
-67 -3 -45 17 -52 81 -10 95 11 3 48 6 82 5 57 -1 69 3 151 50 49 28 98 55
109 59 25 10 62 3 93 -16z"/>
</g>
</svg>
