<?xml version="1.0" standalone="no"?>
<!DOCTYPE svg PUBLIC "-//W3C//DTD SVG 20010904//EN"
 "http://www.w3.org/TR/2001/REC-SVG-20010904/DTD/svg10.dtd">
<svg version="1.0" xmlns="http://www.w3.org/2000/svg"
 width="206.000000pt" height="176.000000pt" viewBox="0 0 206.000000 176.000000"
 preserveAspectRatio="xMidYMid meet">
<metadata>
Created by potrace 1.10, written by Peter Selinger 2001-2011
</metadata>
<g transform="translate(0.000000,176.000000) scale(0.100000,-0.100000)"
fill="#000000" stroke="none">
<path d="M1012 1423 c3 -106 6 -128 18 -128 12 0 15 22 18 128 2 122 2 127
-18 127 -20 0 -20 -5 -18 -127z"/>
<path d="M621 1436 c-10 -12 -1 -33 46 -115 55 -95 83 -121 96 -88 5 13 -106
210 -121 215 -5 1 -14 -4 -21 -12z"/>
<path d="M1352 1348 c-33 -57 -57 -109 -55 -115 13 -33 41 -7 96 88 47 81 56
103 46 115 -6 8 -15 14 -19 14 -4 0 -35 -46 -68 -102z"/>
<path d="M909 1202 c-177 -47 -330 -214 -348 -381 l-6 -56 -167 -3 c-160 -2
-168 -3 -168 -22 0 -20 10 -20 810 -20 800 0 810 0 810 20 0 19 -8 20 -167 22
l-168 3 -7 59 c-11 89 -57 177 -131 250 -126 127 -289 172 -458 128z m252 -52
c101 -34 180 -95 234 -180 29 -45 65 -149 65 -185 l0 -25 -430 0 -430 0 0 25
c0 37 36 140 66 186 53 84 144 152 249 185 63 20 177 17 246 -6z"/>
<path d="M330 1145 c-7 -8 -10 -18 -6 -22 21 -21 203 -120 213 -116 33 13 8
41 -83 93 -116 67 -108 64 -124 45z"/>
<path d="M1608 1102 c-93 -54 -118 -82 -85 -95 10 -4 192 95 213 116 7 7 -14
37 -25 36 -3 0 -50 -26 -103 -57z"/>
<path d="M393 614 c-3 -8 -1 -20 4 -25 5 -5 255 -8 639 -7 621 3 629 3 629 23
0 20 -8 20 -633 23 -568 2 -633 1 -639 -14z"/>
<path d="M696 471 c-4 -5 -3 -16 0 -25 5 -14 44 -16 334 -16 290 0 329 2 334
16 3 9 4 20 0 25 -7 12 -661 12 -668 0z"/>
<path d="M893 275 c-11 -30 12 -36 143 -33 121 3 129 4 129 23 0 19 -8 20
-133 23 -114 2 -133 0 -139 -13z"/>
</g>
</svg>
