<?xml version="1.0" standalone="no"?>
<!DOCTYPE svg PUBLIC "-//W3C//DTD SVG 20010904//EN"
 "http://www.w3.org/TR/2001/REC-SVG-20010904/DTD/svg10.dtd">
<svg version="1.0" xmlns="http://www.w3.org/2000/svg"
 width="274.000000pt" height="300.000000pt" viewBox="0 0 274.000000 300.000000"
 preserveAspectRatio="xMidYMid meet">
<metadata>
Created by potrace 1.10, written by Peter Selinger 2001-2011
</metadata>
<g transform="translate(0.000000,300.000000) scale(0.100000,-0.100000)"
fill="#000000" stroke="none">
<path d="M599 2687 c-27 -14 -26 -6 -52 -509 -8 -142 -16 -260 -19 -263 -3 -3
-50 -26 -103 -50 -54 -24 -104 -50 -111 -57 -7 -7 -27 -56 -43 -108 -17 -52
-45 -143 -64 -202 -47 -147 -49 -145 123 -181 74 -16 140 -31 147 -32 7 -3 0
-34 -23 -94 -40 -106 -40 -112 -15 -135 18 -16 33 -17 134 -11 l114 7 41 -113
c23 -63 71 -195 106 -293 36 -98 71 -185 78 -192 20 -19 439 -204 463 -204 12
0 86 30 166 66 79 36 177 79 217 96 41 18 80 41 87 52 7 12 31 73 54 136 22
63 67 189 100 280 l59 165 120 -3 c120 -3 121 -3 137 22 16 24 16 29 -13 108
-17 46 -33 91 -37 101 -6 13 -2 17 16 17 34 0 262 52 277 63 21 16 13 57 -51
257 l-63 195 -115 59 -115 59 -12 256 c-26 535 -23 514 -73 513 -13 0 -58 -22
-99 -49 -41 -28 -203 -135 -360 -239 -157 -104 -289 -189 -295 -189 -5 0 -98
58 -205 129 -278 184 -505 333 -527 345 -14 7 -27 6 -44 -2z m70 -59 c20 -12
135 -87 256 -167 374 -246 429 -281 443 -281 20 0 88 37 167 90 191 130 437
290 445 290 4 0 10 3 12 8 7 17 120 83 134 78 8 -3 15 -20 16 -38 1 -18 2 -40
3 -48 1 -14 8 -152 21 -425 11 -237 8 -230 128 -290 50 -26 99 -55 108 -66 10
-11 37 -82 62 -157 63 -194 69 -221 56 -237 -6 -7 -61 -23 -123 -36 -90 -18
-117 -28 -139 -50 l-27 -26 26 -80 c37 -113 36 -115 -92 -112 -127 3 -132 -1
-171 -109 -15 -43 -55 -153 -90 -247 -34 -93 -65 -180 -69 -193 -6 -22 -47
-72 -58 -72 -6 0 -159 -68 -306 -136 -40 -19 -84 -34 -97 -34 -13 0 -51 13
-86 29 -102 47 -189 86 -258 116 -87 38 -95 46 -126 129 -75 202 -96 260 -133
365 -22 63 -48 122 -57 132 -15 16 -33 19 -126 19 -130 0 -132 2 -99 100 40
116 22 138 -139 171 -106 21 -130 31 -130 54 0 22 111 359 123 373 11 14 148
82 165 82 4 0 20 12 34 28 29 30 33 61 44 312 9 225 22 429 29 440 9 14 13 13
54 -12z"/>
<path d="M760 2502 c0 -12 75 -65 345 -242 138 -90 259 -164 270 -164 21 0
570 358 594 387 12 15 11 17 -4 17 -22 0 -36 -9 -305 -185 -280 -183 -267
-175 -287 -175 -10 0 -47 20 -83 44 -161 108 -451 296 -478 310 -34 18 -52 20
-52 8z"/>
<path d="M730 2479 c0 -22 52 -118 111 -206 27 -40 49 -74 49 -76 0 -3 18 -32
41 -66 22 -33 39 -69 37 -78 -3 -17 -57 -49 -139 -82 -19 -8 -61 -27 -94 -42
-33 -15 -114 -52 -180 -81 -164 -74 -183 -84 -199 -116 -15 -28 -76 -228 -83
-274 -8 -44 22 -62 153 -92 65 -16 124 -33 131 -38 9 -7 8 -20 -3 -56 -32 -98
-33 -111 -14 -135 16 -19 28 -22 97 -23 43 -1 83 -2 89 -3 11 -1 24 -29 77
-176 14 -38 41 -113 60 -165 19 -52 46 -126 59 -164 12 -38 35 -81 49 -95 31
-31 295 -151 333 -151 40 0 59 38 54 108 -3 51 -12 70 -61 145 -31 48 -57 94
-57 102 0 13 21 15 134 15 74 0 137 -4 140 -8 3 -5 -22 -51 -56 -101 -55 -82
-62 -99 -66 -152 -3 -43 0 -65 12 -84 28 -43 50 -37 303 81 80 38 89 51 151
224 17 47 51 142 76 212 68 188 77 208 95 209 9 1 44 1 79 0 45 -2 71 3 89 14
23 16 25 21 19 68 -4 28 -11 56 -15 62 -17 21 -21 63 -7 74 7 6 67 23 132 38
119 26 153 45 154 83 0 14 -34 129 -71 240 -23 68 -37 78 -273 194 -128 62
-241 116 -252 120 -33 10 -64 44 -57 64 3 9 41 91 85 181 77 159 107 244 78
226 -21 -13 -212 -413 -208 -437 3 -25 5 -26 368 -203 l206 -100 47 -149 c27
-81 47 -150 45 -152 -2 -2 -67 -17 -143 -34 -77 -18 -146 -36 -152 -42 -19
-16 -15 -45 17 -127 16 -41 28 -77 26 -80 -2 -3 -43 -4 -91 -1 -47 3 -94 2
-104 -2 -19 -7 -39 -55 -165 -408 l-78 -215 -71 -29 c-40 -16 -114 -49 -165
-74 -51 -24 -95 -43 -96 -41 -2 2 -1 36 3 74 6 65 12 77 74 170 60 90 65 101
53 120 -13 19 -24 20 -181 20 -159 0 -168 -1 -181 -21 -13 -19 -9 -29 55 -125
65 -98 69 -108 73 -171 2 -38 1 -68 -2 -68 -3 0 -45 20 -95 43 -49 24 -123 57
-162 73 l-73 29 -26 75 c-24 65 -108 296 -176 483 -12 33 -29 62 -39 65 -10 4
-57 5 -104 2 -48 -3 -89 -2 -91 1 -2 3 10 41 26 85 17 43 30 84 30 90 0 31
-32 45 -170 74 l-145 32 50 153 c31 96 55 156 65 159 45 14 576 258 592 272
10 10 18 23 18 29 0 17 -236 394 -266 425 -18 19 -24 21 -24 9z"/>
<path d="M2042 2425 c-18 -23 -142 -267 -162 -319 -7 -19 -4 -30 12 -52 22
-27 171 -104 202 -104 8 0 23 11 32 25 14 22 16 45 10 173 -4 81 -9 170 -12
197 -10 101 -41 132 -82 80z m52 -182 c3 -109 9 -215 13 -236 l6 -37 -104 51
c-57 28 -105 52 -106 53 -1 1 22 49 51 106 29 58 68 140 87 182 19 43 37 78
40 78 3 0 9 -89 13 -197z"/>
<path d="M643 2413 c-14 -21 -19 -64 -27 -229 -9 -191 -8 -205 9 -224 10 -11
25 -20 33 -20 27 0 207 81 231 105 31 30 26 47 -50 170 -115 186 -145 225
-173 225 -3 0 -13 -12 -23 -27z m46 -19 c6 -14 52 -90 101 -169 91 -143 100
-165 78 -165 -7 0 -62 -23 -122 -50 l-109 -50 6 47 c4 27 9 130 13 231 4 100
10 182 14 182 4 0 12 -12 19 -26z"/>
<path d="M840 1582 c0 -10 73 -179 81 -187 10 -9 209 -68 215 -63 9 10 -42
101 -85 150 -42 47 -117 91 -178 103 -19 4 -33 2 -33 -3z m133 -83 c46 -30 87
-77 87 -98 0 -14 4 -14 -58 4 -44 13 -55 22 -72 55 -21 41 -26 70 -12 70 5 0
30 -14 55 -31z"/>
<path d="M1838 1576 c-69 -25 -128 -67 -166 -119 -40 -54 -69 -114 -59 -123 3
-3 51 9 107 26 l102 32 34 74 c58 128 57 137 -18 110z m-8 -75 c-14 -50 -39
-77 -83 -91 -58 -18 -67 -20 -67 -9 0 14 72 90 105 111 44 26 55 24 45 -11z"/>
</g>
</svg>
